Coordinates
version=1
nRows=65
nColumns=12
inDegrees=yes

Units are S.I. units (second, meters, Newtons, ...)
Angles are in degrees

endheader
time	SC_y	SC_z	SC_x	AC_y	AC_z	AC_x	GH_y	GH_z	GH_yy	EL_x	PS_y
       0.0              -58.94          6.218          31.28          31.65         0.3735         -8.622          106.9          79.03         -123.4          64.79          24.69
   0.03951              -58.94          6.223          31.28          31.65         0.3735         -8.617          106.9          79.04         -123.4           64.8          24.69
   0.07902              -58.93          6.228          31.28          31.66         0.3735         -8.613          106.8          79.04         -123.3          64.81          24.69
    0.1185              -58.93          6.233          31.28          31.66         0.3736         -8.608          106.8          79.04         -123.3          64.82           24.7
     0.158              -58.92          6.239          31.28          31.66         0.3736         -8.603          106.8          79.04         -123.2          64.83           24.7
    0.1975              -58.91          6.246          31.28          31.67         0.3736         -8.598          106.8          79.04         -123.2          64.84           24.7
    0.2371              -58.91          6.252          31.28          31.67         0.3737         -8.592          106.8          79.04         -123.1          64.85           24.7
    0.2766               -58.9          6.259          31.28          31.68         0.3737         -8.586          106.7          79.05         -123.1          64.87          24.71
    0.3161              -58.89          6.267          31.28          31.69         0.3738          -8.58          106.7          79.05         -123.0          64.88          24.71
    0.3556              -58.88          6.275          31.28          31.69         0.3738         -8.573          106.7          79.05         -122.9           64.9          24.71
    0.3951              -58.88          6.284          31.28           31.7         0.3739         -8.565          106.6          79.06         -122.9          64.91          24.72
    0.4346              -58.87          6.294          31.28          31.71         0.3739         -8.557          106.6          79.06         -122.8          64.93          24.72
    0.4741              -58.86          6.304          31.28          31.71          0.374         -8.548          106.6          79.06         -122.7          64.95          24.72
    0.5136              -58.85          6.315          31.28          31.72          0.374         -8.539          106.5          79.07         -122.6          64.97          24.73
    0.5531              -58.83          6.327          31.28          31.73         0.3741         -8.529          106.5          79.07         -122.5          64.99          24.73
    0.5926              -58.82           6.34          31.28          31.74         0.3742         -8.518          106.4          79.07         -122.4          65.02          24.74
    0.6321              -58.81          6.354          31.28          31.75         0.3743         -8.506          106.4          79.08         -122.3          65.04          24.74
    0.6716              -58.79          6.369          31.28          31.77         0.3744         -8.493          106.3          79.08         -122.2          65.07          24.75
    0.7112              -58.77          6.386          31.28          31.78         0.3745         -8.478          106.3          79.09         -122.0           65.1          24.76
    0.7507              -58.76          6.404          31.28          31.79         0.3746         -8.463          106.2          79.09         -121.9          65.14          24.76
    0.7902              -58.73          6.424          31.28          31.81         0.3747         -8.445          106.2           79.1         -121.7          65.17          24.77
    0.8297              -58.71          6.447          31.28          31.83         0.3748         -8.427          106.1          79.11         -121.5          65.21          24.78
    0.8692              -58.69          6.471          31.28          31.84          0.375         -8.406          106.0          79.12         -121.3          65.26          24.79
    0.9087              -58.66          6.498          31.28          31.87         0.3751         -8.383          105.9          79.12         -121.1          65.31           24.8
    0.9482              -58.63          6.528          31.28          31.89         0.3753         -8.357          105.8          79.13         -120.9          65.37          24.81
    0.9877               -58.6          6.562          31.28          31.92         0.3755         -8.328          105.7          79.14         -120.6          65.43          24.83
     1.027              -58.56            6.6          31.27          31.95         0.3757         -8.296          105.5          79.16         -120.3           65.5          24.84
     1.067              -58.52          6.642          31.27          31.98          0.376          -8.26          105.4          79.17         -119.9          65.58          24.86
     1.106              -58.47           6.69          31.27          32.02         0.3763         -8.219          105.2          79.19         -119.5          65.67          24.88
     1.146              -58.41          6.744          31.27          32.06         0.3766         -8.173          105.0           79.2         -119.1          65.77           24.9
     1.185              -58.35          6.806          31.27          32.11          0.377          -8.12          104.8          79.22         -118.6          65.88          24.92
     1.225              -58.28          6.878          31.27          32.16         0.3774         -8.059          104.6          79.25         -118.0          66.02          24.95
     1.264               -58.2           6.96          31.27          32.23         0.3779         -7.989          104.3          79.27         -117.3          66.17          24.98
     1.304               -58.1          7.056          31.26           32.3         0.3785         -7.907          104.0           79.3         -116.5          66.35          25.02
     1.343              -57.99          7.167          31.26          32.39         0.3791         -7.812          103.6          79.34         -115.6          66.55          25.07
     1.383              -57.86          7.299          31.26          32.49         0.3799         -7.699          103.1          79.38         -114.5           66.8          25.12
     1.422               -57.7          7.456          31.25          32.61         0.3808         -7.566          102.6          79.43         -113.2          67.09          25.18
     1.462              -57.51          7.644          31.25          32.76          0.382         -7.406          101.9          79.49         -111.7          67.44          25.26
     1.501              -57.28          7.871          31.24          32.94         0.3833         -7.212          101.1          79.57         -109.8          67.86          25.35
     1.541               -57.0          8.149          31.24          33.16          0.385         -6.975          100.1          79.66         -107.5          68.38          25.46
      1.58              -56.66          8.491          31.23          33.42          0.387         -6.683          98.95          79.77         -104.7          69.01          25.59
      1.62              -56.23          8.918          31.22          33.76         0.3895         -6.319          97.46           79.9         -101.2          69.81          25.77
     1.659              -55.69          9.457           31.2          34.18         0.3928          -5.86          95.58          80.08          -96.8          70.81          25.98
     1.699               -55.0          10.14          31.19          34.71         0.3968         -5.277           93.2           80.3         -91.18          72.08          26.25
     1.738              -54.12          11.02          31.17           35.4          0.402          -4.53          90.15          80.58         -83.98           73.7           26.6
     1.778              -52.99          12.14          31.14          36.28         0.4087         -3.572          86.23          80.94         -74.75          75.79          27.05
     1.817              -51.54          13.58           31.1           37.4         0.4173         -2.348          81.23           81.4         -62.95          78.46          27.62
     1.857              -49.73          15.38          31.06          38.81          0.428        -0.8089          74.94          81.99         -48.12          81.81          28.34
     1.896              -47.52          17.58           31.0          40.53         0.4411          1.066          67.27           82.7         -30.05           85.9          29.22
     1.936              -44.96          20.13          30.94          42.52         0.4563           3.24          58.39          83.52         -9.097          90.64          30.23
     1.975              -42.18          22.89          30.87          44.68         0.4727          5.594          48.76          84.41          13.59          95.77          31.33
     2.015               -39.4          25.65          30.81          46.83         0.4892          7.948          39.14           85.3          36.27          100.9          32.43
     2.054              -36.84           28.2          30.74          48.82         0.5044          10.12          30.26          86.12          57.22          105.6          33.45
     2.094              -34.63           30.4          30.69          50.54         0.5175           12.0          22.59          86.83          75.29          109.7          34.33
     2.133              -32.81           32.2          30.65          51.95         0.5282          13.54           16.3          87.41          90.13          113.1          35.05
     2.173              -31.37          33.64          30.61          53.08         0.5368          14.76           11.3          87.87          101.9          115.7          35.62
     2.212              -30.24          34.76          30.58          53.95         0.5435          15.72          7.379          88.23          111.2          117.8          36.07
     2.252              -29.36          35.64          30.56          54.64         0.5487          16.46          4.327          88.52          118.4          119.5          36.42
     2.291              -28.67          36.32          30.54          55.17         0.5527          17.05          1.942          88.74          124.0          120.7          36.69
     2.331              -28.13          36.86          30.53          55.59         0.5559          17.51        0.06638          88.91          128.4          121.7           36.9
     2.371               -27.7          37.29          30.52          55.93         0.5585          17.87         -1.423          89.05          131.9          122.5          37.07
      2.41              -27.36          37.63          30.51          56.19         0.5605          18.16         -2.617          89.16          134.7          123.2          37.21
      2.45              -27.08          37.91          30.51          56.41         0.5622           18.4         -3.584          89.25          137.0          123.7          37.32
     2.489              -26.85          38.14           30.5          56.59         0.5635          18.59         -4.376          89.32          138.9          124.1          37.41
     2.529              -26.66          38.32           30.5          56.74         0.5647          18.75         -5.031          89.38          140.4          124.4          37.49
